<svg width="127" height="127" viewBox="0 0 127 127" fill="none" xmlns="http://www.w3.org/2000/svg">
<path d="M23.2812 27.75C25.7493 27.75 27.75 25.7493 27.75 23.2812C27.75 20.8132 25.7493 18.8125 23.2812 18.8125C20.8132 18.8125 18.8125 20.8132 18.8125 23.2812C18.8125 25.7493 20.8132 27.75 23.2812 27.75Z" fill="#FDC800"/>
<path d="M23.2812 63.5C25.7493 63.5 27.75 61.4993 27.75 59.0312C27.75 56.5632 25.7493 54.5625 23.2812 54.5625C20.8132 54.5625 18.8125 56.5632 18.8125 59.0312C18.8125 61.4993 20.8132 63.5 23.2812 63.5Z" fill="#FDC800"/>
<path d="M23.2812 99.25C25.7493 99.25 27.75 97.2493 27.75 94.7812C27.75 92.3132 25.7493 90.3125 23.2812 90.3125C20.8132 90.3125 18.8125 92.3132 18.8125 94.7812C18.8125 97.2493 20.8132 99.25 23.2812 99.25Z" fill="#FDC800"/>
<path d="M45.625 108.188H9.875V81.375H45.625V72.4375H9.875V45.625H90.3125V9.875C90.3125 7.50463 89.3709 5.23134 87.6948 3.55523C86.0187 1.87913 83.7454 0.9375 81.375 0.9375H9.875C7.50463 0.9375 5.23134 1.87913 3.55523 3.55523C1.87913 5.23134 0.9375 7.50463 0.9375 9.875V108.188C0.9375 110.558 1.87913 112.831 3.55523 114.507C5.23134 116.183 7.50463 117.125 9.875 117.125H45.625V108.188ZM9.875 9.875H81.375V36.6875H9.875V9.875Z" fill="#FDC800"/>
<path d="M117.125 67.9688V78.7519C114.318 74.059 110.33 70.1843 105.557 67.5147C100.785 64.8451 95.3961 63.4739 89.9283 63.5379C84.4605 63.6019 79.1051 65.099 74.3966 67.8796C69.6882 70.6603 65.7915 74.6272 63.0953 79.3845C60.3992 84.1419 58.998 89.5231 59.0316 94.9912C59.0652 100.459 60.5324 105.823 63.2868 110.547C66.0412 115.271 69.9864 119.189 74.7287 121.912C79.4709 124.635 84.8443 126.066 90.3125 126.063V117.125C86.2829 117.13 82.3269 116.046 78.8634 113.986C75.3998 111.927 72.5577 108.969 70.638 105.426C68.7182 101.883 67.7924 97.887 67.9584 93.8608C68.1244 89.8346 69.3761 85.9283 71.581 82.5554C73.7859 79.1826 76.8618 76.4687 80.4832 74.7014C84.1045 72.934 88.1364 72.1788 92.1519 72.5158C96.1673 72.8528 100.017 74.2695 103.293 76.6158C106.569 78.962 109.15 82.1506 110.762 85.8438H99.25V94.7813H126.063V67.9688H117.125Z" fill="#FDC800"/>
</svg>
