<svg width="112" height="121" viewBox="0 0 112 121" fill="none" xmlns="http://www.w3.org/2000/svg">
<path d="M100 0.420166H12C9.08262 0.420166 6.28472 1.39398 4.22182 3.12739C2.15892 4.8608 1 7.21181 1 9.66322V111.337C1 113.788 2.15892 116.139 4.22182 117.873C6.28472 119.606 9.08262 120.58 12 120.58H100C102.917 120.58 105.715 119.606 107.778 117.873C109.841 116.139 111 113.788 111 111.337V9.66322C111 7.21181 109.841 4.8608 107.778 3.12739C105.715 1.39398 102.917 0.420166 100 0.420166ZM100 9.66322V37.3924H12V9.66322H100ZM12 74.3646V46.6354H100V74.3646H12ZM12 111.337V83.6077H100V111.337H12Z" fill="#FDC800"/>
<path d="M28.5 28.1493C31.5376 28.1493 34 26.0802 34 23.5278C34 20.9754 31.5376 18.9062 28.5 18.9062C25.4624 18.9062 23 20.9754 23 23.5278C23 26.0802 25.4624 28.1493 28.5 28.1493Z" fill="#FDC800"/>
<path d="M28.5 65.1215C31.5376 65.1215 34 63.0523 34 60.4999C34 57.9475 31.5376 55.8784 28.5 55.8784C25.4624 55.8784 23 57.9475 23 60.4999C23 63.0523 25.4624 65.1215 28.5 65.1215Z" fill="#FDC800"/>
<path d="M28.5 102.094C31.5376 102.094 34 100.025 34 97.4722C34 94.9198 31.5376 92.8507 28.5 92.8507C25.4624 92.8507 23 94.9198 23 97.4722C23 100.025 25.4624 102.094 28.5 102.094Z" fill="#FDC800"/>
</svg>
