<svg width="141" height="121" viewBox="0 0 141 121" fill="none" xmlns="http://www.w3.org/2000/svg">
<path d="M138.846 21.0243L117.728 1.96689C117.076 1.37564 116.3 0.906745 115.445 0.587202C114.591 0.267659 113.675 0.103777 112.75 0.104987H28.2499C27.3251 0.103777 26.4091 0.267659 25.5546 0.587202C24.7002 0.906745 23.9243 1.37564 23.2715 1.96689L2.15352 21.0243C1.4956 21.6132 0.973815 22.3142 0.618432 23.0865C0.263049 23.8588 0.0811441 24.6871 0.0832704 25.5234V108.133C0.0832704 115.142 6.39965 120.842 14.1666 120.842H126.833C134.6 120.842 140.917 115.142 140.917 108.133V25.5234C140.919 24.6871 140.737 23.8588 140.381 23.0865C140.026 22.3142 139.504 21.6132 138.846 21.0243ZM31.1652 12.8142H109.835L116.876 19.1688H24.1235L31.1652 12.8142ZM84.5833 76.3602V95.424H56.4166V76.3602H35.2916L70.4999 44.5872L105.708 76.3602H84.5833Z" fill="#FDC800"/>
</svg>
