<svg width="133" height="137" viewBox="0 0 133 137" fill="none" xmlns="http://www.w3.org/2000/svg">
<path d="M120.647 22.5664L96.8162 32.5246L38.1398 8.01709L52.4177 2.04543C58.9466 -0.681811 66.23 -0.681811 72.7589 2.04543L117.799 20.859C118.82 21.2834 119.778 21.8554 120.647 22.5582V22.5664ZM62.5961 46.8206L86.2857 36.9196L27.6093 12.4121L7.37769 20.8672C6.35689 21.2915 5.39827 21.8635 4.52993 22.5664L62.5883 46.8206H62.5961ZM0.266105 29.5919C0.0856749 30.4614 -0.00351702 31.3489 0.000106085 32.2387V94.7001C-0.000285755 97.1496 0.702388 99.543 2.01744 101.571C3.33249 103.6 5.19956 105.17 7.37769 106.08L52.4177 124.893C54.4518 125.743 56.5485 126.323 58.6765 126.642V118.987C56.0902 113.106 54.7556 106.71 54.7648 100.239C54.7648 93.5401 56.173 87.2008 58.6765 81.4905V53.985L0.27393 29.5919H0.266105ZM125.176 32.2387V65.577C117.475 58.9242 107.789 55.2918 97.7941 55.3084C91.9328 55.3011 86.1321 56.5477 80.7499 58.9713C75.3677 61.3949 70.5181 64.9442 66.5001 69.4002V53.985L124.903 29.5919C125.083 30.4496 125.176 31.3401 125.176 32.2387ZM133 100.239C133 109.988 129.291 119.339 122.688 126.233C116.086 133.127 107.131 137 97.7941 137C88.457 137 79.5022 133.127 72.8998 126.233C66.2975 119.339 62.5883 109.988 62.5883 100.239C62.5883 90.4891 66.2975 81.1387 72.8998 74.2447C79.5022 67.3506 88.457 63.4775 97.7941 63.4775C107.131 63.4775 116.086 67.3506 122.688 74.2447C129.291 81.1387 133 90.4891 133 100.239ZM112.299 90.8769C113.033 90.1099 113.446 89.0697 113.446 87.985C113.446 86.9004 113.033 85.8601 112.299 85.0931C111.564 84.3262 110.568 83.8953 109.529 83.8953C108.491 83.8953 107.494 84.3262 106.76 85.0931L97.7941 94.4632L88.8284 85.0931C88.0939 84.3262 87.0976 83.8953 86.0589 83.8953C85.0201 83.8953 84.0239 84.3262 83.2893 85.0931C82.5548 85.8601 82.1422 86.9004 82.1422 87.985C82.1422 89.0697 82.5548 90.1099 83.2893 90.8769L92.2629 100.239L83.2893 109.601C82.9256 109.98 82.6371 110.431 82.4403 110.927C82.2435 111.424 82.1422 111.955 82.1422 112.493C82.1422 113.03 82.2435 113.561 82.4403 114.058C82.6371 114.554 82.9256 115.005 83.2893 115.384C83.653 115.764 84.0848 116.065 84.56 116.271C85.0352 116.476 85.5445 116.582 86.0589 116.582C86.5732 116.582 87.0825 116.476 87.5577 116.271C88.0329 116.065 88.4647 115.764 88.8284 115.384L97.7941 106.014L106.76 115.384C107.124 115.764 107.555 116.065 108.031 116.271C108.506 116.476 109.015 116.582 109.529 116.582C110.044 116.582 110.553 116.476 111.028 116.271C111.503 116.065 111.935 115.764 112.299 115.384C112.663 115.005 112.951 114.554 113.148 114.058C113.345 113.561 113.446 113.03 113.446 112.493C113.446 111.955 113.345 111.424 113.148 110.927C112.951 110.431 112.663 109.98 112.299 109.601L103.325 100.239L112.299 90.8769Z" fill="#FDC800"/>
</svg>
