<svg width="143" height="121" viewBox="0 0 143 121" fill="none" xmlns="http://www.w3.org/2000/svg">
<path d="M140.898 20.9648L119.455 1.86595C118.792 1.27342 118.004 0.803508 117.137 0.48327C116.269 0.163032 115.339 -0.00120649 114.4 6.67203e-06H28.6C27.6609 -0.000857349 26.731 0.163541 25.8635 0.483759C24.996 0.803977 24.208 1.2737 23.545 1.86595L2.10211 20.9648C1.43471 21.5555 0.905312 22.258 0.544507 23.0319C0.183702 23.8058 -0.00136173 24.6357 7.54306e-06 25.4737V108.263C7.54306e-06 115.288 6.41355 121 14.3 121H128.7C136.586 121 143 115.288 143 108.263V25.4737C143.002 24.6356 142.817 23.8055 142.457 23.0315C142.096 22.2575 141.566 21.555 140.898 20.9648ZM31.5601 12.7368H111.44L118.59 19.1053H24.4101L31.5601 12.7368ZM71.5 101.895L35.75 70.0526H57.2V50.9474H85.8V70.0526H107.25L71.5 101.895Z" fill="#FDC800"/>
</svg>
