<svg width="143" height="143" viewBox="0 0 143 143" fill="none" xmlns="http://www.w3.org/2000/svg">
<path d="M132.287 132.327C125.172 139.442 116.569 143 106.477 143C96.3857 143 87.8057 139.419 80.7371 132.258L73.4825 125.142L89.2474 116.214L92.7352 119.562C96.3625 123.282 100.804 125.142 106.059 125.142C111.314 125.142 115.801 123.282 119.522 119.562C123.242 115.842 125.102 111.354 125.102 106.099C125.102 100.844 123.242 96.4029 119.522 92.7756L93.2932 66.4078L103.896 52.3171L132.217 80.7776C139.379 87.8462 142.96 96.4262 142.96 106.518C142.96 116.609 139.402 125.212 132.287 132.327ZM32.3264 54.6888L80.4581 71.5698L75.9937 89.4273L27.1644 71.2907C17.3986 68.7795 10.0044 63.199 4.982 54.5493C-0.0404365 45.8995 -1.24954 36.7382 1.35469 27.0654C3.95891 17.3925 9.63241 10.0681 18.3752 5.0922C27.1179 0.11626 36.3722 -1.1161 46.1381 1.39512L75.9937 13.5327L71.5293 31.3902L42.0922 18.2761C37.0698 16.974 32.2799 17.625 27.7225 20.2293C23.1651 22.8335 20.1888 26.6468 18.7937 31.6693C17.3986 36.6917 18.0264 41.4584 20.6771 45.9693C23.3279 50.4802 27.2109 53.3867 32.3264 54.6888V54.6888Z" fill="#FDC800"/>
</svg>
