<svg width="141" height="119" viewBox="0 0 141 119" fill="none" xmlns="http://www.w3.org/2000/svg">
<path fill-rule="evenodd" clip-rule="evenodd" d="M140.852 35.7321C140.852 32.5803 139.617 29.5575 137.418 27.3289C135.219 25.1002 132.236 23.8481 129.127 23.8481H11.8733C8.76354 23.8481 5.78115 25.1002 3.58222 27.3289C1.38329 29.5575 0.147949 32.5803 0.147949 35.7321V107.036C0.147949 110.187 1.38329 113.21 3.58222 115.439C5.78115 117.668 8.76354 118.92 11.8733 118.92H129.127C132.236 118.92 135.219 117.668 137.418 115.439C139.617 113.21 140.852 110.187 140.852 107.036V35.7321ZM115.447 63.4612C115.447 66.6131 114.212 69.6358 112.013 71.8644C109.814 74.0931 106.832 75.3452 103.722 75.3452C100.612 75.3452 97.6297 74.0931 95.4308 71.8644C93.2318 69.6358 91.9965 66.6131 91.9965 63.4612C91.9965 60.3094 93.2318 57.2867 95.4308 55.058C97.6297 52.8294 100.612 51.5773 103.722 51.5773C106.832 51.5773 109.814 52.8294 112.013 55.058C114.212 57.2867 115.447 60.3094 115.447 63.4612ZM97.8592 83.2678C94.7494 83.2678 91.767 84.5198 89.5681 86.7485C87.3692 88.9772 86.1338 91.9999 86.1338 95.1517V103.074H121.31V95.1517C121.31 91.9999 120.074 88.9772 117.876 86.7485C115.677 84.5198 112.694 83.2678 109.585 83.2678H97.8592ZM49.0036 63.4612C49.0036 66.6131 47.7682 69.6358 45.5693 71.8644C43.3703 74.0931 40.388 75.3452 37.2782 75.3452C34.1685 75.3452 31.1861 74.0931 28.9871 71.8644C26.7882 69.6358 25.5529 66.6131 25.5529 63.4612C25.5529 60.3094 26.7882 57.2867 28.9871 55.058C31.1861 52.8294 34.1685 51.5773 37.2782 51.5773C40.388 51.5773 43.3703 52.8294 45.5693 55.058C47.7682 57.2867 49.0036 60.3094 49.0036 63.4612ZM31.4155 83.2678C28.3058 83.2678 25.3234 84.5198 23.1245 86.7485C20.9255 88.9772 19.6902 91.9999 19.6902 95.1517V103.074H54.8662V95.1517C54.8662 91.9999 53.6309 88.9772 51.432 86.7485C49.233 84.5198 46.2506 83.2678 43.1409 83.2678H31.4155ZM78.3169 73.3645C78.3169 75.4657 77.4933 77.4809 76.0274 78.9667C74.5614 80.4524 72.5732 81.2871 70.5 81.2871C68.4268 81.2871 66.4386 80.4524 64.9726 78.9667C63.5067 77.4809 62.6831 75.4657 62.6831 73.3645C62.6831 71.2633 63.5067 69.2482 64.9726 67.7624C66.4386 66.2766 68.4268 65.4419 70.5 65.4419C72.5732 65.4419 74.5614 66.2766 76.0274 67.7624C77.4933 69.2482 78.3169 71.2633 78.3169 73.3645ZM70.5 87.2291C67.3903 87.2291 64.4079 88.4811 62.2089 90.7098C60.01 92.9385 58.7747 95.9612 58.7747 99.113V103.074H82.2254V99.113C82.2254 95.9612 80.99 92.9385 78.7911 90.7098C76.5922 88.4811 73.6098 87.2291 70.5 87.2291Z" fill="#FDC800"/>
<path fill-rule="evenodd" clip-rule="evenodd" d="M11.8733 8.00294H63.0036C63.7039 8.00235 64.3916 8.19249 64.9946 8.55346C65.5975 8.91444 66.0938 9.433 66.4313 10.0549L81.4632 37.7841C81.7906 38.3872 81.9572 39.0664 81.9467 39.7546C81.9362 40.4429 81.749 41.1165 81.4034 41.7091C81.0578 42.3017 80.5658 42.7928 79.9759 43.1339C79.386 43.4751 78.7186 43.6546 78.0394 43.6547H11.8733C10.8367 43.6547 9.84258 43.2374 9.1096 42.4945C8.37663 41.7516 7.96485 40.744 7.96485 39.6934V11.9643C7.96485 10.9136 8.37663 9.90607 9.1096 9.16318C9.84258 8.42029 10.8367 8.00294 11.8733 8.00294ZM63.0036 0.0803228C65.1043 0.0796583 67.1666 0.650999 68.9749 1.73461C70.7832 2.81822 72.271 4.3743 73.2828 6.24016L88.3147 33.9693C92.6062 41.8919 86.9546 51.5773 78.0355 51.5773H11.8733C8.76354 51.5773 5.78115 50.3253 3.58222 48.0966C1.38329 45.868 0.147949 42.8452 0.147949 39.6934V11.9643C0.147949 8.81244 1.38329 5.78971 3.58222 3.56104C5.78115 1.33237 8.76354 0.0803228 11.8733 0.0803228H63.0036Z" fill="#FDC800"/>
<path fill-rule="evenodd" clip-rule="evenodd" d="M7.96484 23.8481H84.1796V31.7708H7.96484V23.8481Z" fill="#FDC800"/>
</svg>
