<svg width="141" height="120" viewBox="0 0 141 120" fill="none" xmlns="http://www.w3.org/2000/svg">
<path d="M138.033 54.3695L105.641 29.8966V13.2286C105.814 9.88799 104.569 6.61946 102.18 4.13967C99.7903 1.65987 96.4517 0.171182 92.8958 0H12.6208C9.08985 0.204776 5.78699 1.70803 3.42772 4.1841C1.06846 6.66016 -0.157234 9.90965 0.0161852 13.2286V79.3716C-0.04917 81.9981 0.719607 84.5835 2.22452 86.7981C3.72943 89.0127 5.90231 90.7562 8.46619 91.8064C7.16935 94.7865 6.66393 98.0182 6.99354 101.223C7.32314 104.427 8.47787 107.508 10.3581 110.2C12.2383 112.892 14.7875 115.113 17.7858 116.673C20.7841 118.233 24.1414 119.084 27.5681 119.153C30.9947 119.222 34.3877 118.507 37.4544 117.069C40.5211 115.631 43.1693 113.514 45.1705 110.901C47.1718 108.287 48.466 105.255 48.9414 102.067C49.4168 98.8787 49.0593 95.6296 47.8995 92.6002H92.6845C91.5264 95.5973 91.1543 98.8124 91.5996 101.973C92.045 105.134 93.2947 108.148 95.2429 110.759C97.1911 113.37 99.7805 115.501 102.792 116.973C105.803 118.445 109.148 119.213 112.542 119.213C115.936 119.213 119.281 118.445 122.292 116.973C125.304 115.501 127.893 113.37 129.841 110.759C131.789 108.148 133.039 105.134 133.484 101.973C133.93 98.8124 133.558 95.5973 132.4 92.6002H133.808C135.675 92.6002 137.467 91.9033 138.787 90.6629C140.108 89.4225 140.85 87.7401 140.85 85.9859V59.5287C140.828 58.5243 140.563 57.5377 140.075 56.6437C139.587 55.7498 138.889 54.9721 138.033 54.3695ZM126.766 62.7035V79.3716H105.641V46.8292L126.766 62.7035ZM35.2245 99.2144C35.2245 100.523 34.8115 101.801 34.0378 102.889C33.264 103.977 32.1643 104.825 30.8776 105.325C29.5909 105.826 28.175 105.957 26.8091 105.702C25.4431 105.446 24.1884 104.816 23.2036 103.891C22.2189 102.966 21.5482 101.788 21.2765 100.505C21.0048 99.2218 21.1442 97.8919 21.6772 96.6833C22.2102 95.4747 23.1127 94.4416 24.2707 93.7149C25.4287 92.9881 26.7901 92.6002 28.1829 92.6002C30.0504 92.6002 31.8415 93.297 33.1621 94.5374C34.4826 95.7778 35.2245 97.4602 35.2245 99.2144ZM119.725 99.2144C119.725 100.523 119.312 101.801 118.538 102.889C117.764 103.977 116.664 104.825 115.378 105.325C114.091 105.826 112.675 105.957 111.309 105.702C109.943 105.446 108.688 104.816 107.704 103.891C106.719 102.966 106.048 101.788 105.776 100.505C105.505 99.2218 105.644 97.8919 106.177 96.6833C106.71 95.4747 107.613 94.4416 108.771 93.7149C109.929 92.9881 111.29 92.6002 112.683 92.6002C114.55 92.6002 116.342 93.297 117.662 94.5374C118.983 95.7778 119.725 97.4602 119.725 99.2144Z" fill="#FDC800"/>
</svg>
